<svg aria-hidden="true" style="position: absolute; width: 0; height: 0; overflow: hidden;" version="1.1" xmlns="http://www.w3.org/2000/svg" xmlns:xlink="http://www.w3.org/1999/xlink">
<defs>
<symbol id="icon-menu" viewBox="0 0 32 32">
<path d="M30.4 6.4c0 0.884-0.716 1.6-1.6 1.6v0h-25.6c-0.884 0-1.6-0.716-1.6-1.6s0.716-1.6 1.6-1.6v0h25.6c0.884 0 1.6 0.716 1.6 1.6v0zM30.4 16c0 0.884-0.716 1.6-1.6 1.6v0h-25.6c-0.884 0-1.6-0.716-1.6-1.6s0.716-1.6 1.6-1.6v0h25.6c0.884 0 1.6 0.716 1.6 1.6v0zM28.8 27.2c0.884 0 1.6-0.716 1.6-1.6s-0.716-1.6-1.6-1.6v0h-25.6c-0.884 0-1.6 0.716-1.6 1.6s0.716 1.6 1.6 1.6v0h25.6z"></path>
</symbol>
<symbol id="icon-close" viewBox="0 0 32 32">
<path d="M6.654 5.32c-0.736 0-1.333 0.597-1.333 1.333 0 0.375 0.154 0.713 0.403 0.955l8.391 8.391-8.391 8.391c-0.253 0.243-0.41 0.584-0.41 0.962 0 0.736 0.597 1.333 1.333 1.333 0.378 0 0.719-0.157 0.961-0.41l0-0 8.391-8.391 8.391 8.391c0.243 0.253 0.584 0.41 0.962 0.41 0.736 0 1.333-0.597 1.333-1.333 0-0.378-0.157-0.719-0.41-0.961l-0-0-8.391-8.391 8.391-8.391c0.249-0.243 0.404-0.581 0.404-0.956 0-0.736-0.597-1.333-1.333-1.333-0.014 0-0.028 0-0.041 0.001l0.002-0c-0.36 0.011-0.683 0.163-0.916 0.403l-8.391 8.391-8.391-8.391c-0.242-0.249-0.581-0.404-0.956-0.404v0z"></path>
</symbol>
<symbol id="icon-facebook" viewBox="0 0 22 22">
 <circle cx="11" cy="11" r="11" fill="#FFFDFB" />
  <path d="M22 11C22 4.9258 17.0742 0 11 0C4.9258 0 0 4.9258 0 11C0 17.0742 4.9258 22 11 22C11.0646 22 11.1289 21.9987 11.1934 21.9975V13.4344H8.83008V10.6803H11.1934V8.6535C11.1934 6.30298 12.6283 5.02365 14.725 5.02365C15.7291 5.02365 16.5921 5.09851 16.8438 5.13191V7.58852H15.3979C14.2572 7.58852 14.0363 8.13066 14.0363 8.92609V10.6803H16.7639L16.4084 13.4344H14.0363V21.575C18.6342 20.2569 22 16.021 22 11Z" fill="#1A212F" />
</symbol>
<symbol id="icon-vk" viewBox="0 0 32 32">
<path fill="#1a212f" style="fill: var(--color2, #1a212f)" d="M16 32c8.837 0 16-7.163 16-16s-7.163-16-16-16c-8.837 0-16 7.163-16 16s7.163 16 16 16z"></path>
<path fill="#fffdfb" style="fill: var(--color2, #fffdfb)" d="M15.396 23.017h1.256c0 0 0.379-0.042 0.573-0.25 0.178-0.192 0.172-0.552 0.172-0.552s-0.024-1.685 0.758-1.933c0.771-0.244 1.761 1.629 2.81 2.349 0.793 0.545 1.396 0.426 1.396 0.426l2.806-0.039c0 0 1.468-0.090 0.772-1.244-0.057-0.094-0.405-0.854-2.086-2.414-1.759-1.633-1.523-1.369 0.596-4.193 1.291-1.72 1.807-2.77 1.645-3.22-0.154-0.428-1.103-0.315-1.103-0.315l-3.159 0.020c0 0-0.234-0.032-0.408 0.072-0.17 0.102-0.279 0.339-0.279 0.339s-0.5 1.331-1.167 2.463c-1.407 2.389-1.969 2.515-2.199 2.366-0.535-0.346-0.401-1.389-0.401-2.13 0-2.315 0.351-3.28-0.684-3.53-0.343-0.083-0.596-0.138-1.474-0.147-1.127-0.012-2.081 0.003-2.621 0.268-0.359 0.176-0.637 0.568-0.468 0.591 0.209 0.028 0.682 0.127 0.932 0.469 0.324 0.44 0.312 1.429 0.312 1.429s0.186 2.725-0.434 3.064c-0.426 0.232-1.010-0.242-2.264-2.409-0.643-1.11-1.128-2.337-1.128-2.337s-0.094-0.229-0.26-0.352c-0.203-0.149-0.485-0.196-0.485-0.196l-3.002 0.020c0 0-0.451 0.013-0.616 0.209-0.147 0.174-0.012 0.535-0.012 0.535s2.35 5.498 5.011 8.269c2.44 2.54 5.211 2.374 5.211 2.374z"></path>
</symbol>
<symbol id="icon-advantage1" viewBox="0 0 32 32">
<path fill="#fffdfb" style="fill: var(--color1, #fffefd)" d="M24.541 7.354c0.263 0 0.477 0.213 0.477 0.477s-0.213 0.477-0.477 0.477h-4.264c-0.263 0-0.477-0.213-0.477-0.477s0.213-0.477 0.477-0.477h4.264zM22.83 9.982c0-0.263-0.213-0.477-0.477-0.477h-2.076c-0.263 0-0.477 0.213-0.477 0.477s0.213 0.477 0.477 0.477h2.076c0.263 0 0.477-0.213 0.477-0.477zM19.801 12.134c0 0.263 0.213 0.477 0.477 0.477h4.264c0.263 0 0.477-0.213 0.477-0.477s-0.213-0.477-0.477-0.477h-4.264c-0.263 0-0.477 0.213-0.477 0.477zM22.83 14.286c0-0.263-0.213-0.477-0.477-0.477h-2.076c-0.263 0-0.477 0.213-0.477 0.477s0.213 0.477 0.477 0.477h2.076c0.263 0 0.477-0.213 0.477-0.477zM19.801 16.438c0 0.263 0.213 0.477 0.477 0.477h4.264c0.263 0 0.477-0.213 0.477-0.477s-0.213-0.477-0.477-0.477h-4.264c-0.263 0-0.477 0.213-0.477 0.477zM20.614 25.096c0 3.807-3.058 6.904-6.816 6.904s-6.816-3.097-6.816-6.904c0-2.467 1.279-4.709 3.366-5.949v-15.652c0-1.927 1.548-3.495 3.45-3.495s3.45 1.568 3.45 3.495v15.652c2.087 1.239 3.366 3.482 3.366 5.949zM19.669 25.096c0-2.093-1.148-4.396-2.998-5.347l-0.368-0.19v-16.064c0-1.176-1.345-2.541-2.505-2.541s-2.505 1.366-2.505 2.541v16.064l-0.368 0.19c-1.849 0.952-2.998 3.254-2.998 5.347 0 3.055 2.855 5.951 5.871 5.951s5.871-2.896 5.871-5.951zM18.146 25.096c0 2.428-1.95 4.404-4.348 4.404s-4.348-1.975-4.348-4.404c0-1.99 1.728-3.738 3.63-4.25l0.25-0.067v-7.942c0-0.259 0.21-0.469 0.469-0.469s0.469 0.21 0.469 0.469v7.942l0.25 0.068c1.902 0.512 3.629 2.26 3.629 4.25zM14.397 22.154c-0.104-0.466-0.549-0.356-1.021-0.247-1.648 0.378-2.799 1.838-2.799 3.551 0 0.485 0 1.004 0.614 1.004 0.326 0 0.401-0.541 0.401-1.026 0-0.871 0.532-2.17 1.784-2.462 0.466-0.108 1.126-0.349 1.021-0.821z"></path>
</symbol>
<symbol id="icon-advantage2" viewBox="0 0 32 32">
<path fill="#fffdfb" style="fill: var(--color1, #fffefd)" d="M29.672 13.745c-0.011-0.237-0.15-0.675-0.96-0.954l-21.594-7.433c-1.107-0.381-2.335 0.161-2.738 1.209l-1.9 4.941c-0.403 1.048 0.17 2.211 1.277 2.592l6.293 2.166c-0.12 0.689 0.080 1.369 0.514 1.889l-1.341 3.487c-0.062 0.16-0.224 0.268-0.405 0.268h-3.928v-1.213c0-0.669-0.575-1.213-1.282-1.213h-0.855c-0.236 0-0.427 0.181-0.427 0.404v6.471c0 0.223 0.191 0.404 0.427 0.404h0.855c0.707 0 1.282-0.544 1.282-1.213v-1.213h3.928c1.254 0 2.385-0.75 2.814-1.865l1.312-3.413c0.751-0.1 1.434-0.515 1.839-1.163l7.355 2.531c0.24 0.083 0.486 0.122 0.729 0.122 0.734-0 1.432-0.361 1.823-0.965l0.844 0.291c0.095 0.033 0.194 0.049 0.293 0.049 0.123 0 0.246-0.025 0.36-0.076 0.207-0.091 0.364-0.253 0.442-0.456l1.169-3.042c0.142-0.37-0.020-0.775-0.365-0.97l1.37-0.605c0.781-0.345 0.879-0.793 0.869-1.030zM4.036 25.55c0 0.223-0.192 0.404-0.427 0.404h-0.427v-5.662h0.427c0.236 0 0.427 0.181 0.427 0.404v4.854zM10.83 22.195c-0.306 0.797-1.115 1.333-2.011 1.333h-3.928v-0.809h3.928c0.538 0 1.024-0.322 1.208-0.801l1.227-3.19c0.141 0.080 0.291 0.149 0.452 0.204 0.114 0.039 0.228 0.070 0.343 0.094l-1.218 3.169zM12.641 18.271c-0.010-0-0.020-0-0.030 0.001-0.203 0.003-0.411-0.029-0.614-0.099-0.238-0.082-0.445-0.208-0.614-0.365-0.016-0.018-0.033-0.035-0.052-0.050-0.318-0.321-0.489-0.756-0.456-1.208l3.085 1.062c-0.312 0.406-0.801 0.645-1.319 0.66zM26.996 16.073l-1.169 3.041-0.804-0.277 1.109-2.883 0.227-0.1 0.637 0.219zM28.442 14.042l-3.474 1.533c-0.753 0.332-2.048 0.386-2.828 0.117l-16.374-5.634c-0.222-0.076 0.336 0.308 0.255 0.518s-0.769 0.165-0.548 0.242l16.374 5.634c0.43 0.148 0.96 0.22 1.501 0.22 0.591 0 1.195-0.087 1.695-0.255l-0.97 2.523c-0.242 0.629-0.979 0.954-1.643 0.725l-18.382-6.326c-0.664-0.229-1.008-0.927-0.766-1.555l0.731-1.901c0.244 0.355 0.606 0.641 1.058 0.796l0.402 0.138c0.222 0.076 0.467-0.032 0.548-0.242s-0.034-0.442-0.255-0.518l-0.402-0.138c-0.664-0.229-1.008-0.926-0.766-1.555l0.585-1.521c0.242-0.629 0.979-0.954 1.643-0.725l21.594 7.433c0.274 0.095 0.376 0.193 0.396 0.229-0.017 0.038-0.109 0.144-0.374 0.261z"></path>

</symbol>
<symbol id="icon-advantage3" viewBox="0 0 32 32">
<path fill="#fffdfb" style="fill: var(--color1, #fffefd)" d="M30.739 17.195c-0.13-0.131-2.592-3.208-7.97-3.306-0.518-0.917-2.495-3.895-5.702-3.895h-0.097l-1.426-2.75c-0.097-0.164-0.259-0.262-0.421-0.262h-2.203c-0.194 0-0.356 0.098-0.421 0.262l-1.296 2.717h-0.421c-0.13 0-3.175-0.229-6.35 3.895h-2.462c-0.227 0-0.421 0.164-0.486 0.393-0.032 0.196-1.004 4.91 0.616 6.94 0.518 0.622 1.199 0.949 2.041 0.949h0.68c0.227 1.637 1.62 2.881 3.305 2.881s3.078-1.244 3.305-2.881h9.461c0.227 1.637 1.62 2.881 3.305 2.881s3.078-1.244 3.305-2.881h2.851c0.259 0 0.486-0.229 0.486-0.491v-4.157c0-0.098-0.032-0.229-0.097-0.295zM17.066 10.943c2.268 0 3.823 1.899 4.536 2.946h-7.031v-2.946h2.495zM13.243 7.964h1.588l1.037 2.029h-3.596l0.972-2.030zM10.748 10.943h2.884v2.946h-7.938c2.624-3.044 4.99-2.946 5.054-2.946zM8.124 24.069c-1.296 0-2.365-1.080-2.365-2.39s1.069-2.39 2.365-2.39 2.365 1.080 2.365 2.39c0.032 1.309-1.037 2.39-2.365 2.39zM24.194 24.069c-1.296 0-2.365-1.080-2.365-2.39s1.069-2.39 2.365-2.39c1.296 0 2.365 1.080 2.365 2.39s-1.037 2.39-2.365 2.39zM29.864 21.188h-2.365c-0.227-1.637-1.62-2.881-3.305-2.881s-3.078 1.244-3.305 2.881h-9.461c-0.227-1.637-1.62-2.881-3.305-2.881s-3.078 1.244-3.305 2.881h-0.68c-0.551 0-0.972-0.196-1.296-0.589-1.004-1.277-0.745-4.255-0.486-5.728h20.12c4.504 0 6.869 2.259 7.387 2.815v3.503z"></path>
</symbol>
<symbol id="icon-advantage4" viewBox="0 0 32 32">
<path d="M31.926 23.305l-2.163-8.011c-0.243-0.901-0.94-1.595-1.814-1.874 0.059-0.248 0.090-0.503 0.090-0.764 0-1.815-1.477-3.291-3.292-3.291-0.186 0-0.37 0.016-0.552 0.046-0.14-0.443-0.374-0.853-0.689-1.204-0.173-0.193-0.469-0.208-0.662-0.035s-0.208 0.469-0.035 0.662c0.308 0.343 0.507 0.764 0.575 1.216 0.021 0.137 0.101 0.258 0.219 0.33s0.262 0.088 0.394 0.044c0.242-0.081 0.494-0.122 0.75-0.122 1.298 0 2.354 1.056 2.354 2.354 0 0.216-0.029 0.426-0.085 0.629h-22.031c-0.056-0.203-0.085-0.414-0.085-0.629 0-1.298 1.056-2.354 2.354-2.354 0.256 0 0.508 0.041 0.75 0.122 0.131 0.044 0.275 0.028 0.394-0.044s0.198-0.193 0.219-0.33c0.172-1.14 1.173-2 2.328-2 0.748 0 1.46 0.362 1.903 0.968 0.11 0.151 0.3 0.222 0.482 0.181s0.323-0.188 0.357-0.371c0.207-1.113 1.18-1.921 2.313-1.921s2.107 0.808 2.313 1.921c0.034 0.184 0.174 0.33 0.357 0.371s0.372-0.029 0.482-0.181c0.443-0.606 1.154-0.968 1.903-0.968 0.137 0 0.271 0.011 0.4 0.034 0.254 0.045 0.498-0.125 0.543-0.38s-0.125-0.498-0.38-0.543c-0.182-0.032-0.372-0.048-0.563-0.048-0.762 0-1.497 0.268-2.079 0.742-0.532-1.128-1.679-1.885-2.976-1.885s-2.444 0.757-2.976 1.885c-0.582-0.473-1.317-0.742-2.079-0.742-1.441 0-2.711 0.958-3.138 2.298-0.182-0.031-0.367-0.046-0.552-0.046-1.815 0-3.292 1.476-3.292 3.291 0 0.26 0.031 0.515 0.090 0.764-0.874 0.279-1.571 0.973-1.814 1.874l-2.163 8.011c-0.174 0.643-0.039 1.318 0.369 1.851 0.425 0.555 1.076 0.873 1.786 0.873h1.025c0.259 0 0.469-0.21 0.469-0.469s-0.21-0.469-0.469-0.469h-1.025c-0.416 0-0.796-0.184-1.042-0.506-0.229-0.299-0.305-0.677-0.208-1.037l2.163-8.011c0.209-0.774 0.937-1.315 1.77-1.315h22.175c0.834 0 1.561 0.54 1.77 1.315l2.163 8.011c0.097 0.359 0.021 0.737-0.208 1.037-0.246 0.321-0.626 0.506-1.042 0.506h-24.641c-0.259 0-0.469 0.21-0.469 0.469s0.21 0.469 0.469 0.469h24.641c0.71 0 1.361-0.318 1.786-0.873 0.408-0.533 0.543-1.208 0.369-1.851z"></path>
<path d="M12.954 21.237c0 1.68 1.366 3.046 3.046 3.046s3.046-1.366 3.046-3.046-1.366-3.046-3.046-3.046c-1.68 0-3.046 1.366-3.046 3.046zM18.108 21.237c0 1.163-0.946 2.108-2.108 2.108s-2.108-0.946-2.108-2.108 0.946-2.108 2.108-2.108 2.108 0.946 2.108 2.108z"></path>
<path d="M14.013 14.803c-0.866 0-1.57 0.704-1.57 1.57s0.704 1.57 1.57 1.57 1.57-0.704 1.57-1.57-0.704-1.57-1.57-1.57zM14.013 17.006c-0.349 0-0.633-0.284-0.633-0.633s0.284-0.633 0.633-0.633c0.349 0 0.633 0.284 0.633 0.633s-0.284 0.633-0.633 0.633z"></path>
<path d="M9.772 19.013c0 0.866 0.704 1.57 1.57 1.57s1.57-0.704 1.57-1.57-0.704-1.57-1.57-1.57-1.57 0.704-1.57 1.57zM11.975 19.013c0 0.349-0.284 0.633-0.633 0.633s-0.633-0.284-0.633-0.633 0.284-0.633 0.633-0.633c0.349 0 0.633 0.284 0.633 0.633z"></path>
<path d="M17.962 14.803c-0.866 0-1.57 0.704-1.57 1.57s0.704 1.57 1.57 1.57 1.57-0.704 1.57-1.57-0.704-1.57-1.57-1.57zM17.962 17.006c-0.349 0-0.633-0.284-0.633-0.633s0.284-0.633 0.633-0.633 0.633 0.284 0.633 0.633-0.284 0.633-0.633 0.633z"></path>
<path d="M20.633 20.583c0.866 0 1.57-0.704 1.57-1.57s-0.704-1.57-1.57-1.57-1.57 0.704-1.57 1.57 0.704 1.57 1.57 1.57zM20.633 18.38c0.349 0 0.633 0.284 0.633 0.633s-0.284 0.633-0.633 0.633-0.633-0.284-0.633-0.633 0.284-0.633 0.633-0.633z"></path>
</symbol>
<symbol id="icon-advantage5" viewBox="0 0 32 32">
<path fill="#fffdfb" style="fill: var(--color1, #fffefd)" d="M30.009 7.443c-0.193-0.154-0.463-0.191-0.705-0.118-0.901 0.271-1.579 0.811-1.905 1.111-0.602-0.172-1.253-0.172-1.855 0-0.33-0.304-1.020-0.853-1.938-1.121-0.273-0.080-0.57-0.001-0.756 0.207-0.158 0.176-0.198 0.419-0.121 0.637 0.229 0.649 0.599 1.672 0.729 2.030-0.058 0.178-0.093 0.366-0.105 0.558-0.011 0.185-0.008 0.362 0.008 0.531l-0.256 0.504c-0.168 0.33-0.503 0.559-0.893 0.609-1.417 0.181-4.177 0.547-6.73 0.963-3.305 0.537-4.615 0.891-5.176 1.109-0.479-0.675-1.162-1.225-1.956-1.57-1.206-0.523-3.225-1.661-3.188-3.404 0.033-1.577 0.676-2.509 1.21-3.013 0.228-0.215 0.347-0.511 0.328-0.812s-0.177-0.583-0.431-0.772c-0.492-0.365-1.196-0.302-1.602 0.145-1.351 1.487-1.675 3.545-1.747 4.64-0.073 1.104 0.276 2.125 1.039 3.035 0.547 0.653 1.293 1.235 2.219 1.729 0.897 0.479 1.545 1.245 1.826 2.155 0.025 0.080 0.036 0.163 0.035 0.246l-0.009 0.421c-0.004 0.206-0.022 0.411-0.053 0.615l-0.307 2.035c-0.121 0.799-0.673 1.47-1.446 1.839-0.537 0.256-0.844 0.802-0.764 1.357l0.562 3.886c0.029 0.201 0.214 0.351 0.433 0.351h2.311c0.093 0 0.187-0.023 0.263-0.073 0.155-0.102 0.218-0.279 0.17-0.44l-0.025-0.083c-0.181-0.606-0.678-1.070-1.31-1.249l-0.109-0.831c-0.030-0.233 0.112-0.456 0.347-0.543l2.208-0.815c-0 0.022-0.001 0.043-0.003 0.064-0 0.003-0 0.005-0.001 0.008-0.022 0.384-0.038 0.73-0.048 1.029-0.014 0.41 0.154 0.806 0.467 1.096l1.853 1.719c0.082 0.076 0.193 0.119 0.309 0.119h2.679c0.231 0 0.425-0.175 0.437-0.388 0.043-0.743-0.521-1.386-1.314-1.498l-0.766-0.108-0.317-0.461c-0.156-0.227-0.15-0.517 0.013-0.739l2.090-2.839c0.635-0.182 3.314-0.9 4.885-0.56 0.021 0.192 0.078 0.38 0.17 0.555l3.047 5.81c0.073 0.139 0.226 0.228 0.393 0.228h2.072c0.092 0 0.183-0.022 0.259-0.071 0.155-0.099 0.22-0.272 0.177-0.433l-0.141-0.522c-0.136-0.504-0.541-0.89-1.053-1.041l0.507-4.095c0.021-0.171 0.076-0.337 0.162-0.489 0.316-0.559 0.935-1.635 1.537-2.542 0.473-0.713 0.777-1.534 0.88-2.372 0.156-1.276 0.462-2.905 0.538-3.302 0.336-0.447 0.491-1.038 0.448-1.731-0.012-0.193-0.047-0.38-0.105-0.558 0.131-0.361 0.506-1.398 0.735-2.047 0.088-0.251 0.008-0.525-0.211-0.699zM7.776 23.373c-0.603 0.223-0.97 0.795-0.892 1.393l0.146 1.118c0.024 0.186 0.182 0.332 0.383 0.354 0.254 0.028 0.481 0.135 0.651 0.297h-1.23l-0.511-3.534c-0.031-0.216 0.088-0.429 0.298-0.529 0.97-0.463 1.66-1.31 1.88-2.293 0.786 0.86 1.347 1.672 1.619 2.329l-2.343 0.865zM26.979 17.728c-0.615 0.928-1.245 2.021-1.566 2.59-0.137 0.242-0.223 0.502-0.256 0.773l-0.239 1.932-0.527-2.422c-0.050-0.23 0.007-0.469 0.157-0.658l1.203-1.518c0.665-0.839 0.968-1.872 0.852-2.908-0.025-0.223-0.24-0.384-0.479-0.361s-0.414 0.222-0.39 0.445c0.093 0.835-0.151 1.668-0.687 2.345l-1.203 1.518c-0.295 0.372-0.408 0.846-0.309 1.299l1.074 4.933c0.041 0.189 0.22 0.325 0.428 0.325 0.325 0 0.608 0.204 0.686 0.497l0.005 0.019h-1.252l-2.927-5.582c-0.075-0.142-0.104-0.3-0.085-0.457l0.433-3.566c0.027-0.222-0.145-0.423-0.385-0.448s-0.456 0.135-0.483 0.357l-0.376 3.099c-1.426-0.25-3.385 0.137-4.498 0.412 0.090-0.543-0.057-1.111-0.439-1.568l-0.638-0.765c-0.148-0.177-0.422-0.209-0.613-0.072s-0.226 0.392-0.078 0.568l0.638 0.765c0.357 0.428 0.376 1.015 0.047 1.462l-2.175 2.954c-0.361 0.49-0.372 1.13-0.029 1.631l0.423 0.617c0.068 0.099 0.178 0.166 0.303 0.183l0.963 0.135c0.197 0.028 0.362 0.131 0.464 0.274h-1.954l-1.725-1.6c-0.141-0.131-0.218-0.312-0.211-0.497 0.010-0.292 0.026-0.631 0.048-1.009 0.097-1.297-1.27-2.978-2.094-3.866-0.145-0.156-0.223-0.355-0.218-0.56l0.049-2.331c0.001-0.040-0.072-0.298-0.072-0.298-0.343-1.114-1.135-2.049-2.23-2.634-2.465-1.317-2.895-2.909-2.822-4.012 0.154-2.318 1.033-3.606 1.543-4.168 0.098-0.108 0.269-0.123 0.388-0.034 0.085 0.063 0.102 0.145 0.105 0.188s-0.004 0.125-0.079 0.196c-0.645 0.609-1.421 1.721-1.46 3.565-0.047 2.201 2.293 3.548 3.691 4.154 0.749 0.325 1.377 0.874 1.767 1.546 0 0 0.020 0.035 0.024 0.041 0.064 0.099 0.172 0.169 0.295 0.19 0.125 0.022 0.254-0.008 0.353-0.082 0.455-0.337 3.848-1.096 11.914-2.128 0.577-0.074 1.083-0.37 1.404-0.808 0.081 0.121 0.174 0.233 0.279 0.334 0.442 0.424 1.077 0.647 1.837 0.647 0.028 0 1.145-0.001 1.145-0.001 0.003 0 0.005 0 0.008-0 0.411 0.009 0.786-0.046 1.116-0.162-0.124 0.699-0.286 1.662-0.386 2.484-0.088 0.721-0.35 1.426-0.756 2.039zM28.614 10.049c-0.036 0.090-0.036 0.19 0.001 0.282 0.058 0.144 0.092 0.3 0.103 0.464 0.037 0.595-0.108 1.066-0.417 1.363-0.285 0.274-0.727 0.411-1.278 0.399-0.004-0-0.008-0-0.013-0s-1.082-0.001-1.103 0c-0.544 0.009-0.982-0.128-1.265-0.4-0.31-0.297-0.454-0.768-0.417-1.363 0.010-0.163 0.045-0.319 0.103-0.464 0.036-0.091 0.036-0.19 0.001-0.279l-0.001-0.003c-0.042-0.115-0.4-1.101-0.666-1.849 0.853 0.345 1.419 0.961 1.424 0.968 0.123 0.137 0.328 0.183 0.505 0.114 0.559-0.218 1.2-0.218 1.759 0 0.176 0.069 0.381 0.022 0.504-0.113 0.006-0.007 0.572-0.623 1.425-0.968-0.266 0.748-0.625 1.736-0.666 1.849z"></path>
<path fill="#fffdfb" style="fill: var(--color1, #fffefd)" d="M24.328 10.049l0.001 0.003c0.256-0.669 0.256-0.669 0.758-0.884-0.006-0.006-0.571-0.622-1.424-0.968 0.266 0.748 0.624 1.734 0.666 1.849z"></path>
<path fill="#fffdfb" style="fill: var(--color1, #fffefd)" d="M29.28 8.2c-0.853 0.345-1.419 0.961-1.425 0.968 0.724 0.211 0.732 0.368 0.758 0.864l0.001 0.017c0.041-0.113 0.4-1.101 0.666-1.849z"></path>
<path fill="#fffdfb" style="fill: var(--color1, #fffefd)" d="M5.334 5.559c-0.51 0.562-1.39 1.85-1.543 4.168l0.497-0.254c0.039-1.843 0.816-2.956 1.46-3.565 0.075-0.071 0.082-0.153 0.079-0.196s-0.020-0.125-0.105-0.188c-0.12-0.089-0.29-0.074-0.388 0.034z"></path>
</symbol>
<symbol id="icon-advantage6" viewBox="0 0 32 32">
<path fill="#fffdfb" style="fill: var(--color1, #fffefd)" d="M12.843 11.505c-0.146 0.345-0.219 0.71-0.217 1.084 0.004 0.752 0.318 1.465 0.884 2.008s1.321 0.855 2.124 0.878c0.627 0.017 1.246-0.143 1.771-0.458 0.498 0.299 1.082 0.459 1.677 0.459 0.031 0 0.062-0 0.094-0.001 0.796-0.023 1.545-0.329 2.109-0.863s0.883-1.238 0.898-1.982c0.009-0.465-0.096-0.912-0.312-1.327-0.198-0.38-1.804-2.026-2.372-2.63-0.142-0.151 0.24 0.377 0.078 0.51s-0.688-0.078-0.546 0.073c0.514 0.546 1.973 2.050 2.138 2.366 0.162 0.311 0.241 0.645 0.234 0.994-0.023 1.159-1.012 2.095-2.252 2.13-0.544 0.016-1.079-0.149-1.506-0.463-0.141-0.104-0.34-0.104-0.482 0-0.427 0.314-0.963 0.478-1.506 0.463-1.236-0.035-2.246-1.005-2.252-2.161-0.002-0.281 0.053-0.554 0.163-0.812 0.253-0.596 0.8-1.271 1.829-2.255 0.967-0.925 2.529-1.037 3.634-0.263 0.172 0.121 0.417 0.088 0.546-0.073s0.094-0.39-0.078-0.51c-1.417-0.993-3.421-0.849-4.66 0.336-1.12 1.072-1.698 1.795-1.996 2.496z"></path>
<path fill="#fffdfb" style="fill: var(--color1, #fffefd)" d="M15.347 7.84c1.002 0 1.817-0.976 1.817-2.175s-0.815-2.175-1.817-2.175c-1.002 0-1.817 0.976-1.817 2.175s0.815 2.175 1.817 2.175zM15.347 4.22c0.562 0 1.037 0.662 1.037 1.446s-0.475 1.446-1.037 1.446c-0.562 0-1.037-0.662-1.037-1.446s0.475-1.446 1.037-1.446z"></path>
<path fill="#fffdfb" style="fill: var(--color1, #fffefd)" d="M11.624 10.447c0.809 0 1.442-0.746 1.442-1.699s-0.633-1.699-1.442-1.699c-0.809 0-1.442 0.746-1.442 1.699s0.633 1.699 1.442 1.699zM11.624 7.778c0.359 0 0.662 0.444 0.662 0.97s-0.303 0.97-0.662 0.97c-0.359 0-0.662-0.444-0.662-0.97s0.303-0.97 0.662-0.97z"></path>
<path fill="#fffdfb" style="fill: var(--color1, #fffefd)" d="M23.036 10.447c0.809 0 1.442-0.746 1.442-1.699s-0.633-1.699-1.442-1.699c-0.809 0-1.442 0.746-1.442 1.699s0.633 1.699 1.442 1.699zM23.036 7.778c0.359 0 0.662 0.444 0.662 0.97s-0.303 0.97-0.662 0.97c-0.359 0-0.662-0.444-0.662-0.97s0.303-0.97 0.662-0.97z"></path>
<path fill="#fffdfb" style="fill: var(--color1, #fffefd)" d="M19.909 7.84c1.002 0 1.817-0.976 1.817-2.175s-0.815-2.175-1.817-2.175c-1.002 0-1.817 0.976-1.817 2.175s0.815 2.175 1.817 2.175zM19.909 4.22c0.562 0 1.037 0.662 1.037 1.446s-0.475 1.446-1.037 1.446c-0.562 0-1.037-0.662-1.037-1.446s0.475-1.446 1.037-1.446z"></path>
<path fill="#fffdfb" style="fill: var(--color1, #fffefd)" d="M27.315 15.091c-0.395-0.369-0.921-0.573-1.48-0.573s-1.084 0.204-1.48 0.573l-2.294 2.145c-0.383-0.394-0.936-0.642-1.549-0.642h-3.287c-0.215 0 0.411 0.163 0.411 0.364s-0.627 0.364-0.411 0.364h3.287c0.724 0 1.313 0.551 1.313 1.228s-0.589 1.228-1.313 1.228h-3.287c-0.215 0-0.39 0.163-0.39 0.364s0.175 0.364 0.39 0.364h3.287c1.154 0 2.093-0.878 2.093-1.957 0-0.236-0.045-0.463-0.128-0.673 0.004-0.004 0.009-0.007 0.013-0.011l2.416-2.259c0.512-0.479 1.345-0.479 1.857 0s0.512 1.257 0 1.736l-4.845 4.53h-4.468c-0.215 0 0.186 0.163 0.186 0.364s-0.215 0.364 0 0.364h4.444c0.103 0 0.203-0.038 0.276-0.107l4.959-4.636c0.816-0.763 0.816-2.004 0-2.767z"></path>
<path fill="#fffdfb" style="fill: var(--color1, #fffefd)" d="M17.737 21.873h-1.775c-0.103 0-0.201 0.038-0.274 0.105l-1.226 1.132-2.995-2.801c-0.057-0.2-0.086-0.406-0.086-0.615 0-1.304 1.135-2.365 2.53-2.365 0.023 0 0.046-0.002 0.068-0.006h3.427c0.215 0 0.39-0.163 0.39-0.364s-0.175-0.364-0.39-0.364h-3.803c-0.063 0-0.122 0.014-0.175 0.039-1.563 0.215-2.773 1.455-2.823 2.963l-0.315-0.295c-0.152-0.142-0.399-0.142-0.551 0l-2.066 1.931c-0.013 0.012-0.025 0.026-0.036 0.039l-3.458 3.617c-0.064 0.067-0.099 0.153-0.099 0.242l-0.006 2.995c-0 0.201 0.174 0.365 0.389 0.365l6.426 0.017c0.103 0 0.203-0.038 0.276-0.107l4.154-3.884c0.073-0.068 0.114-0.161 0.114-0.258s-0.041-0.189-0.114-0.258l-0.354-0.331 1.16-1.071h1.615c0.215 0 0.39-0.163 0.39-0.364s-0.175-0.365-0.39-0.365zM10.726 27.78l-5.873-0.015 0.005-2.492 3.107-3.249 4.459 4.169-1.698 1.588zM12.999 25.654l-4.476-4.185 1.49-1.393 4.476 4.185-1.49 1.393z"></path>
</symbol>
<symbol id="icon-bcg_fish" viewBox="0 0 102 32">
<path fill="#fab751" style="fill: var(--color3, #fab751)" opacity="0.15" d="M78.375 11.031c1.959 2.338 1.522 8.379-0.676 10.052-1.223-3.455-0.793-6.734 0.676-10.052zM69.555 24.84c-1.801-3.808-1.006-14.674 0.467-17.452 2.899 3.856 2.681 13.076-0.467 17.452zM19.074 9.294c2.442-0.005 4.161 1.75 4.162 4.249 0.002 2.461-1.798 4.308-4.171 4.279-2.378-0.027-4.064-1.781-4.079-4.235-0.017-2.546 1.644-4.287 4.088-4.293zM60.308 4.164c4.849 6.518 3.817 19.007-0.641 23.705 0.215-7.896 0.424-15.676 0.641-23.705zM32.448 2.591c5.908 8.56 4.272 21.074-0.626 26.306 1.273-8.908 0.957-17.602 0.626-26.306zM49.45 29.341c1.595-8.954 1.69-17.819 1.668-26.956 4.83 6.744 4.37 21.111-1.668 26.956zM40.924 29.593c0.834-9.128 2.346-18.245 0.621-27.436 6.079 6.767 5.253 19.617-0.621 27.436zM95.198 16.558c2.808-1.725 4.933-3.965 6.353-6.815 1.869-3.763 0.44-6.18-3.749-6.548-2.243-0.198-4.335 0.303-6.211 1.445-1.723 1.048-3.31 2.324-4.945 3.516-0.436 0.318-0.827 0.696-1.248 1.037-1.695 1.365-3.462 1.553-5.473 0.608-3.662-1.72-7.312-3.507-11.097-4.917-8.003-2.979-16.348-4.405-24.871-4.796-12.92-0.596-25.273 1.845-37.090 7.031-1.865 0.819-3.56 2.040-5.304 3.125-0.419 0.259-0.754 0.682-1.057 1.082-1.016 1.327-0.978 2.696 0.274 3.803 9.568 8.474 20.174 14.909 33.18 16.353 12.607 1.397 24.889 0.050 36.622-4.998 3.217-1.381 6.304-3.074 9.444-4.635 0.998-0.496 1.991-1.005 2.957-1.557 0.587-0.337 0.851-0.157 1.196 0.376 0.956 1.471 1.884 2.981 3.017 4.308 2.25 2.634 5.142 3.642 8.558 2.848 2.418-0.56 3.487-2.224 3.087-4.66-0.431-2.605-1.833-4.686-3.641-6.607z"></path>
<path fill="#fff" style="fill: var(--color4, #fff)" opacity="0.15" d="M40.924 29.593c5.874-7.82 6.699-20.669 0.621-27.436 1.725 9.191 0.213 18.308-0.621 27.436z"></path>
<path fill="#fff" style="fill: var(--color4, #fff)" opacity="0.15" d="M49.45 29.341c6.038-5.845 6.498-20.212 1.668-26.956 0.022 9.137-0.073 18.002-1.668 26.956z"></path>
<path fill="#fff" style="fill: var(--color4, #fff)" opacity="0.15" d="M32.448 2.591c0.331 8.704 0.648 17.397-0.626 26.306 4.898-5.232 6.534-17.746 0.626-26.306z"></path>
<path fill="#fff" style="fill: var(--color4, #fff)" opacity="0.15" d="M60.308 4.164c-0.217 8.030-0.426 15.809-0.641 23.705 4.458-4.698 5.49-17.187 0.641-23.705z"></path>
<path fill="#fff" style="fill: var(--color4, #fff)" opacity="0.15" d="M19.075 9.294c-2.444 0.005-4.105 1.747-4.088 4.293 0.015 2.454 1.701 4.208 4.079 4.235 2.373 0.029 4.172-1.818 4.171-4.279-0.002-2.499-1.72-4.254-4.162-4.249z"></path>
<path fill="#fff" style="fill: var(--color4, #fff)" opacity="0.15" d="M69.555 24.84c3.147-4.376 3.366-13.596 0.467-17.452-1.473 2.778-2.268 13.643-0.467 17.452z"></path>
<path fill="#fff" style="fill: var(--color4, #fff)" opacity="0.15" d="M78.375 11.031c-1.471 3.318-1.899 6.597-0.676 10.052 2.199-1.672 2.635-7.714 0.676-10.052z"></path>
</symbol>
<symbol id="icon-bcg_paw" viewBox="0 0 28 32">
<path fill="#fac663" style="fill: var(--color5, #fac663)" opacity="0.15" d="M8.422 8.696c3.49 4.278-0.141 11.46-4.993 9.598-2.093-0.803-3.301-3.069-3.337-5.386-0.082-5.352 5.334-7.885 8.33-4.212z"></path>
<path fill="#fac663" style="fill: var(--color5, #fac663)" opacity="0.15" d="M12.661 11.385c-5.367-2.060-3.482-11.774 2.191-11.313 2.585 0.211 4.599 2.859 4.3 6.173-0.334 3.714-3.474 6.298-6.492 5.14z"></path>
<path fill="#fac663" style="fill: var(--color5, #fac663)" opacity="0.15" d="M7.825 28.108c0.824 0.080 2.198 0.456 3.59 0.968 1.472 0.54 2.964 1.233 3.85 1.888 2.392 1.773 6.727 1.37 7.364-2.679 0.588-3.743-2.144-4.566-1.514-8.085 0.639-3.556-1.208-6.099-3.647-6.892-2.258-0.734-5.024 0.033-6.792 2.886-1.884 3.040-4.459 1.824-6.525 4.998-2.24 3.437 0.724 6.63 3.674 6.916z"></path>
<path fill="#fac663" style="fill: var(--color5, #fac663)" opacity="0.15" d="M22.106 15.011c-1.518-0.583-2.484-1.963-2.692-3.588-0.616-4.832 5.050-9.019 8.632-6.282 4.532 3.46-0.576 11.929-5.941 9.87z"></path>
<path fill="#fac663" style="fill: var(--color5, #fac663)" opacity="0.15" d="M22.179 22.073c-0.108-4.87 5.951-8.443 9.231-5.328 3.951 3.752-1.347 11.36-6.514 9.376-1.658-0.637-2.676-2.196-2.717-4.048z"></path>
</symbol>
<symbol id="icon-checked" viewBox="0 0 32 32">
<path fill="none" stroke="#141312" style="stroke: var(--color6, #141312)" stroke-linejoin="round" stroke-linecap="round" stroke-miterlimit="4" stroke-width="1.6" d="M8 14.8l5.538 6 8.862-9.6"></path>
<path fill="none" stroke="#e1e1e1" style="stroke: var(--color7, #e1e1e1)" stroke-linejoin="miter" stroke-linecap="butt" stroke-miterlimit="4" stroke-width="1.6" d="M0.8 0.8h30.4v30.4h-30.4v-30.4z"></path>
</symbol>
<symbol id="icon-citata" viewBox="0 0 29 32">
<path fill="#fac663" style="fill: var(--color5, #fac663)" d="M4.191 30.631c-1.469-2.438-2.454-4.992-2.955-7.663-0.501-2.705-0.551-5.376-0.15-8.014s1.252-5.159 2.554-7.563c1.336-2.404 3.105-4.558 5.309-6.461l3.055 1.853c0.534 0.367 0.768 0.818 0.701 1.352-0.067 0.501-0.25 0.918-0.551 1.252-0.801 1.002-1.519 2.254-2.154 3.757-0.601 1.469-1.002 3.072-1.202 4.808s-0.134 3.539 0.2 5.409c0.334 1.87 1.035 3.706 2.104 5.51 0.467 0.768 0.601 1.453 0.401 2.054s-0.634 1.035-1.302 1.302l-6.010 2.404zM19.768 30.631c-1.469-2.438-2.454-4.992-2.955-7.663-0.501-2.705-0.551-5.376-0.15-8.014s1.252-5.159 2.554-7.563c1.336-2.404 3.105-4.558 5.309-6.461l3.055 1.853c0.534 0.367 0.768 0.818 0.701 1.352-0.067 0.501-0.25 0.918-0.551 1.252-0.801 1.002-1.519 2.254-2.154 3.757-0.601 1.469-1.002 3.072-1.202 4.808s-0.134 3.539 0.2 5.409c0.334 1.87 1.035 3.706 2.104 5.51 0.467 0.768 0.601 1.453 0.401 2.054s-0.634 1.035-1.302 1.302l-6.010 2.404z"></path>
</symbol>
<symbol id="icon-down_arrow" viewBox="0 0 32 32">
<path d="M31.172 6.831c-1.104-1.107-2.896-1.107-4.001 0l-11.17 12.329-11.17-12.329c-1.106-1.107-2.896-1.107-4.001 0s-1.106 2.9 0 4.007l12.994 14.343c0.598 0.598 1.395 0.862 2.178 0.813 0.782 0.049 1.58-0.214 2.178-0.813l12.994-14.343c1.104-1.107 1.104-2.9-0-4.007z"></path>
</symbol>
<symbol id="icon-filter_down_arrow">
<path d="M3.5 11L6 8.64706M3.5 11L1 8.64706M3.5 11L3.5 1" stroke="#141312" stroke-linecap="round" stroke-linejoin="round"  width="7" height="12" viewBox="0 0 7 12" fill="none" xmlns="http://www.w3.org/2000/svg"/>
</symbol>
<symbol id="icon-filter_up_arrow">
 <path d="M3.5 1L1 3.35294M3.5 1L6 3.35294M3.5 1V11" stroke="#141312" stroke-linecap="round" stroke-linejoin="round"  width="7" height="12" viewBox="0 0 7 12" fill="none" xmlns="http://www.w3.org/2000/svg"/>
</symbol>
<symbol id="icon-gray_point" viewBox="0 0 32 32">
<path fill="#e1e1e1" style="fill: var(--color7, #e1e1e1)" d="M32.001 16c0 8.837-7.163 16-16 16s-16-7.163-16-16c0-8.837 7.163-16 16-16s16 7.163 16 16z"></path>
</symbol>
<symbol id="icon-instagram" viewBox="0 0 32 32">
<path fill="#fffdfb" style="fill: var(--color1, #fffdfb)" d="M32 16c0 8.837-7.163 16-16 16s-16-7.163-16-16c0-8.837 7.163-16 16-16s16 7.163 16 16z"></path>
<path fill="#1a212f" style="fill: var(--color2, #1a212f)" d="M19.063 16c0 1.691-1.371 3.063-3.063 3.063s-3.063-1.371-3.063-3.063c0-1.691 1.371-3.063 3.063-3.063s3.063 1.371 3.063 3.063z"></path>
<path fill="#1a212f" style="fill: var(--color2, #1a212f)" d="M23.162 10.582c-0.147-0.399-0.382-0.76-0.687-1.056-0.296-0.305-0.657-0.54-1.056-0.687-0.324-0.126-0.81-0.275-1.706-0.316-0.969-0.044-1.259-0.054-3.713-0.054s-2.744 0.009-3.713 0.053c-0.896 0.041-1.382 0.191-1.706 0.316-0.399 0.147-0.76 0.382-1.056 0.687-0.305 0.296-0.54 0.657-0.688 1.056-0.126 0.324-0.275 0.81-0.316 1.706-0.044 0.969-0.054 1.259-0.054 3.713s0.010 2.744 0.054 3.713c0.041 0.896 0.19 1.382 0.316 1.706 0.147 0.399 0.382 0.76 0.687 1.056 0.296 0.305 0.657 0.54 1.056 0.687 0.324 0.126 0.81 0.276 1.706 0.316 0.969 0.044 1.259 0.054 3.712 0.054s2.744-0.009 3.713-0.054c0.896-0.041 1.382-0.19 1.706-0.316 0.801-0.309 1.435-0.942 1.744-1.744 0.126-0.324 0.275-0.81 0.316-1.706 0.044-0.969 0.053-1.26 0.053-3.713s-0.009-2.744-0.053-3.713c-0.041-0.896-0.19-1.382-0.316-1.706zM16 20.718c-2.606 0-4.718-2.112-4.718-4.718s2.112-4.718 4.718-4.718c2.606 0 4.718 2.112 4.718 4.718s-2.112 4.718-4.718 4.718zM20.904 12.198c-0.609 0-1.103-0.494-1.103-1.103s0.494-1.103 1.103-1.103c0.609 0 1.103 0.494 1.103 1.103s-0.494 1.103-1.103 1.103z"></path>
<path fill="#1a212f" style="fill: var(--color2, #1a212f)" d="M16 0c-8.835 0-16 7.165-16 16s7.165 16 16 16c8.835 0 16-7.165 16-16s-7.165-16-16-16zM25.132 19.788c-0.044 0.978-0.2 1.646-0.427 2.23-0.477 1.234-1.453 2.21-2.687 2.687-0.584 0.227-1.252 0.382-2.23 0.427-0.98 0.045-1.293 0.055-3.788 0.055s-2.808-0.011-3.788-0.055c-0.978-0.045-1.646-0.2-2.23-0.427-0.613-0.231-1.168-0.592-1.627-1.060-0.467-0.459-0.829-1.014-1.060-1.627-0.227-0.584-0.383-1.252-0.427-2.23-0.045-0.98-0.056-1.293-0.056-3.788s0.011-2.808 0.055-3.788c0.044-0.978 0.2-1.646 0.427-2.23 0.231-0.613 0.593-1.168 1.060-1.627 0.459-0.468 1.014-0.829 1.627-1.060 0.584-0.227 1.252-0.382 2.23-0.427 0.98-0.045 1.293-0.055 3.788-0.055s2.808 0.011 3.788 0.056c0.978 0.044 1.646 0.2 2.23 0.427 0.613 0.231 1.168 0.593 1.628 1.060 0.467 0.459 0.829 1.014 1.059 1.627 0.227 0.584 0.383 1.252 0.427 2.23 0.045 0.98 0.055 1.293 0.055 3.788s-0.010 2.808-0.055 3.788z"></path>
</symbol>
<symbol id="icon-logo" viewBox="0 0 39 32">
<path fill="#1a212f" style="fill: var(--color2, #1a212f)" d="M4.861 29.835c-0.050-0.598-0.407-1.186-1.389-1.236 0.605-0.080 1.438-1.476 1.081-2.513-0.298-0.837-1.191-0.508-1.716-0.349-0.099 0.798 0.129 2.263-0.754 2.453-0.040-0.419 0.040-1.117-0.069-1.845-0.208-1.206-1.677-0.648-2.014-0.499 0.129 1.336 0.109 1.695 0.109 3.3 0.010 0.548-0.050 1.416 0 1.884 0.139 1.246 1.617 0.917 2.024 0.488 0-0.528-0.010-1.605-0.040-2.203 0.655-0.050 0.774 0.14 0.794 1.535 0.010 1.396 1.657 1.137 2.143 0.658-0.169-0.518-0.119-1.177-0.169-1.675z"></path>
<path fill="#1a212f" style="fill: var(--color2, #1a212f)" d="M5.722 28.808c0 2.891 1.488 3.131 2.53 3.101 0.962 0 2.54-0.269 2.55-3.101-0.010-2.423-1.081-3.28-2.52-3.28-1.518 0-2.56 0.937-2.56 3.28zM8.281 27.153c0.109 0 0.526-0.16 0.526 1.585 0 1.137-0.179 1.785-0.536 1.785-0.298 0-0.536-0.269-0.506-1.785 0-1.376 0.347-1.585 0.516-1.585z"></path>
<path fill="#1a212f" style="fill: var(--color2, #1a212f)" d="M12.843 27.363c0 0.568-0.010 1.196 0.020 3.131 0.010 0.778 0.040 1.416 0.933 1.396 0.794 0 0.992-0.319 1.081-0.419 0.030-0.867-0.030-2.762-0.050-4.078 0.218 0 0.427 0 0.615-0.010 0.635-0.020 0.853-0.399 0.843-0.927-0.010-0.598-0.496-0.917-1.171-0.917h-1.885c-1.498 0.010-1.597 0.010-1.716 0-0.278 1.177-0.109 1.805 1.032 1.825h0.298z"></path>
<path fill="#1a212f" style="fill: var(--color2, #1a212f)" d="M20.372 25.578c-0.694-0.070-2.371-0.040-3.532 0.010 0.129 1.326 0.139 3.031 0.119 4.237 0.020 1.157-0.079 1.964 1.131 2.044 0.794 0.060 1.24 0.060 1.954 0 0.972-0.080 1.369-0.608 0.903-1.765-0.804 0.12-1.548 0.15-2.014 0.060 0-0.14-0.020-0.578 0-0.688 0.446 0 0.933-0.020 1.359-0.020 0.883 0 0.794-1.426-0.010-1.426-0.575-0.030-0.833 0.030-1.369-0.020v-0.788c0.605-0.050 0.873-0.020 1.379 0 0.952 0.030 0.952-1.446 0.079-1.645z"></path>
<path fill="#1a212f" style="fill: var(--color2, #1a212f)" d="M23.471 23.405c-0.655 0.429-0.615 1.077-0.149 1.466 0.526 0.379 1.558 0.259 2.252-0.050 0.635-0.289 0.883-0.947 0.208-1.436-1.002 0.528-1.667 0.259-2.311 0.020zM27.002 26.426c0-0.598-0.377-0.887-0.972-0.887-0.694 0-1.052 0.179-1.26 0.818-0.248 0.778-0.615 1.974-0.823 2.802 0-0.359 0.059-2.473 0.059-2.732 0-0.658-0.347-0.887-0.933-0.887-0.407 0-1.131 0.259-1.131 0.259 0.059 0.449 0.109 0.708 0.119 1.296 0.020 0.618 0 1.605 0.059 3.559 0.030 0.957 0.337 1.276 1.111 1.246 1.389-0.050 1.478-2.622 1.855-3.559 0 0.429-0.020 1.914-0.020 2.413 0 0.678 0.059 1.147 0.843 1.147 0.675 0 1.062-0.229 1.181-0.439-0.079-0.299-0.109-2.114-0.109-3.539 0-0.628 0.010-1.177 0.020-1.496z"></path>
<path fill="#1a212f" style="fill: var(--color2, #1a212f)" d="M32.75 29.835c-0.050-0.598-0.407-1.186-1.389-1.236 0.605-0.080 1.438-1.476 1.081-2.513-0.298-0.837-1.191-0.508-1.716-0.349-0.099 0.798 0.129 2.263-0.754 2.453-0.040-0.419 0.040-1.117-0.069-1.845-0.208-1.206-1.677-0.648-2.014-0.499 0.129 1.336 0.109 1.695 0.109 3.3 0.010 0.548-0.050 1.416 0 1.884 0.139 1.246 1.617 0.917 2.024 0.488 0-0.528-0.010-1.605-0.040-2.203 0.655-0.050 0.774 0.14 0.794 1.535 0.010 1.396 1.657 1.137 2.143 0.658-0.169-0.518-0.119-1.177-0.169-1.675z"></path>
<path fill="#1a212f" style="fill: var(--color2, #1a212f)" d="M38.769 31.47c-0.139-0.389-0.129-0.578-0.159-1.137-0.079-1.456-0.099-2.861-0.575-3.829-0.804-1.426-2.877-1.037-3.879-0.319-0.089 1.725-0.387 2.433-0.575 4.357-0.139 1.406 1.032 1.795 2.123 1.107 0-0.17 0-0.758 0.050-0.897 0.129 0 0.615 0.010 0.804 0.010 0 0-0.050 0.578 0.228 0.887 0.496 0.568 1.637 0.399 1.984-0.18zM35.823 29.506c0.069-0.538 0.069-1.655 0.099-1.894 0.050-0.040 0.387-0.020 0.427 0.030 0.119 0.469 0.119 1.326 0.149 1.864h-0.675z"></path>
<path fill="#ff7236" style="fill: var(--color8, #ff7236)" d="M24 4.305l4.047-4.047c0.55-0.55 1.492-0.161 1.492 0.618v10.814c-0-3.508-2.777-5.641-5.538-7.385z"></path>
<path fill="#ffaa50" style="fill: var(--color9, #ffaa50)" d="M29.539 11.69c0 5.438-4.408 9.847-9.846 9.847s-9.846-4.409-9.846-9.847 4.408-9.232 9.846-9.232c5.438 0 9.846 3.793 9.846 9.232z"></path>
<path fill="#ff7236" style="fill: var(--color8, #ff7236)" d="M15.385 11.69c0-4.739 2.721-8.227 6.345-9.046-0.658-0.121-1.338-0.186-2.037-0.186-1.812 0-3.504 0.429-4.962 1.192l-3.392-3.393c-0.55-0.55-1.492-0.161-1.492 0.618v10.814c0-0.222 0-0.221 0 0 0 5.438 4.408 9.847 9.846 9.847 0.699 0 1.38-0.075 2.037-0.214-3.624-0.939-6.345-4.894-6.345-9.633z"></path>
<path fill="#fffdfb" style="fill: var(--color1, #fffdfb)" d="M17.538 17.845c1.19 0 2.154-0.827 2.154-1.846s-0.964-1.846-2.154-1.846c-1.189 0-2.154 0.827-2.154 1.846s0.964 1.846 2.154 1.846z"></path>
<path fill="#fffdfb" style="fill: var(--color1, #fffdfb)" d="M21.846 17.845c1.189 0 2.154-0.827 2.154-1.846s-0.964-1.846-2.154-1.846c-1.19 0-2.154 0.827-2.154 1.846s0.964 1.846 2.154 1.846z"></path>
<path fill="#ff913c" style="fill: var(--color10, #ff913c)" d="M19.692 15.999c0.68 0 1.231-0.551 1.231-1.231s-0.551-1.231-1.231-1.231c-0.68 0-1.231 0.551-1.231 1.231s0.551 1.231 1.231 1.231z"></path>
<path fill="#1a212f" style="fill: var(--color2, #1a212f)" d="M16 12.306c-0.34 0-0.615-0.276-0.615-0.615v-0.615c0-0.34 0.275-0.615 0.615-0.615s0.615 0.276 0.615 0.615v0.615c0 0.34-0.275 0.615-0.615 0.615z"></path>
<path fill="#1a212f" style="fill: var(--color2, #1a212f)" d="M23.385 12.306c-0.34 0-0.615-0.276-0.615-0.615v-0.615c0-0.34 0.275-0.615 0.615-0.615s0.615 0.276 0.615 0.615v0.615c0 0.34-0.275 0.615-0.615 0.615z"></path>
</symbol>
<symbol id="icon-non_checked" viewBox="0 0 32 32">
<path fill="none" stroke="#e1e1e1" style="stroke: var(--color7, #e1e1e1)" stroke-linejoin="miter" stroke-linecap="butt" stroke-miterlimit="4" stroke-width="1.6" d="M0.8 0.8h30.4v30.4h-30.4v-30.4z"></path>
</symbol>
<symbol id="icon-orange_point" viewBox="0 0 32 32">
<path fill="#fac663" style="fill: var(--color5, #fac663)" d="M32.001 16c0 8.837-7.163 16-16 16s-16-7.163-16-16c0-8.837 7.163-16 16-16s16 7.163 16 16z"></path>
</symbol>
<symbol id="icon-paw" viewBox="0 0 37 32">
<path d="M29.872 11.599c-5.27 3.023-4.373 11.845 1.344 11.845 2.465 0 4.599-1.853 5.549-4.223 2.194-5.473-2.369-10.218-6.893-7.622z"></path>
<path d="M24.46 12.692c6.323 0 8.217-10.738 2.209-12.503-2.737-0.804-5.849 1.125-6.849 4.652-1.122 3.953 1.085 7.851 4.64 7.851z"></path>
<path d="M22.833 31.805c-0.878-0.243-2.437-0.399-4.068-0.422-1.724-0.025-3.53 0.098-4.698 0.422-3.155 0.879-7.448-1.247-6.506-5.664 0.871-4.083 4.002-3.85 4.742-7.719 0.746-3.91 3.644-5.797 6.462-5.65 2.608 0.137 5.146 2.017 5.837 5.651 0.736 3.872 3.86 3.637 4.73 7.718 0.945 4.42-3.356 6.535-6.499 5.664z"></path>
<path d="M13.331 12.692c1.789 0 3.325-1.039 4.178-2.629 2.537-4.728-1.63-11.272-6.388-9.871-6.018 1.77-4.11 12.499 2.21 12.499z"></path>
<path d="M10.473 19.929c2.030-4.968-2.782-11.036-7.378-9.126-5.536 2.3-3.095 12.218 2.993 12.218 1.954 0 3.614-1.203 4.386-3.091z"></path>
<path d="M22.833 31.805c-0.878-0.243-2.437-0.399-4.068-0.422v-18.611c2.608 0.137 5.146 2.017 5.837 5.651 0.736 3.872 3.86 3.637 4.73 7.718 0.945 4.42-3.357 6.535-6.499 5.664z"></path>
</symbol>
<symbol id="icon-right_arrow" viewBox="0 0 19 32">
<path fill="none" stroke="#ff7236" style="stroke: var(--color8, #ff7236)" stroke-linejoin="round" stroke-linecap="round" stroke-miterlimit="4" stroke-width="6.4" d="M3.202 28.8l12.8-12.8-12.8-12.8"></path>
</symbol>
<symbol id="icon-room_1" viewBox="0 0 32 32">
<path fill="#777" style="fill: var(--color12, #777)" d="M32 16c0 4.274-1.664 8.292-4.686 11.314s-7.040 4.686-11.314 4.686c-2.992 0-5.858-0.817-8.345-2.343l1.834-1.834c1.932 1.068 4.151 1.677 6.511 1.677 7.444 0 13.5-6.056 13.5-13.5 0-2.359-0.609-4.579-1.677-6.51l1.834-1.834c1.526 2.487 2.343 5.353 2.343 8.345zM1.821 31.946l-1.768-1.768 3.783-3.783c-2.482-2.895-3.837-6.541-3.837-10.396 0-4.274 1.664-8.292 4.686-11.314s7.040-4.686 11.314-4.686c3.854 0 7.5 1.354 10.396 3.837l3.783-3.783 1.768 1.768-30.125 30.125zM5.616 24.616l19.001-19.001c-2.339-1.945-5.344-3.116-8.616-3.116-7.444 0-13.5 6.056-13.5 13.5 0 3.273 1.171 6.277 3.116 8.616z"></path>
</symbol>
<symbol id="icon-room_2" viewBox="0 0 16 12">
<path fill="#777" style="fill: var(--color12, #777)" d="M15.9954 3.3624C15.903 1.47693 14.4576 0 12.7047 0H3.29498C1.54228 0 0.0970314 1.47693 0.00468751 3.36237C0.0015625 3.4248 0 10.3773 0 10.3773C0 11.2721 0.675001 12 1.50469 12H14.495C15.3248 12 16 11.2721 16 10.3773C16 10.3773 15.9985 3.42517 15.9954 3.3624ZM3.29498 0.750004H12.7047C13.9626 0.750004 15.0197 1.71375 15.2554 3.00713H14.5399C14.3158 2.12209 13.5737 1.49987 12.7049 1.49987H8.14773C7.95567 1.49987 8.49555 1.66779 8.49555 1.87486C8.49555 2.08193 7.95567 2.24984 8.14773 2.24984H12.7049C13.1885 2.24984 13.6103 2.5535 13.8027 3.00709H13.4564C12.5889 3.00709 11.8775 3.7413 11.8288 4.66366C10.613 4.2499 9.30636 4.04297 7.99992 4.04297C6.69345 4.04297 5.38698 4.24987 4.17129 4.66363C4.1226 3.74129 3.41104 3.00709 2.54335 3.00709H2.1971C2.38941 2.55354 2.81129 2.24984 3.29491 2.24984H8.14773C8.3398 2.24984 8.49555 2.08193 8.49555 1.87486C8.49555 1.66779 8.3398 1.49987 8.14773 1.49987H3.29491C2.4261 1.49987 1.68394 2.12209 1.45988 3.00713H0.744658C0.980283 1.71375 2.03729 0.750004 3.29498 0.750004ZM11.8261 5.45181V6.72524C11.8261 7.28085 11.4067 7.73285 10.8911 7.73285H5.10854C4.5932 7.73285 4.17395 7.28081 4.17395 6.72524V5.45181C6.58804 4.57165 9.41174 4.57165 11.8261 5.45181ZM15.3044 10.3773C15.3044 10.8585 14.9413 11.25 14.495 11.25H1.50469C1.05856 11.25 0.695658 10.8585 0.695658 10.3773V10.1235V9.74847V9.37349V3.75713H2.54332C3.05888 3.75713 3.47829 4.20917 3.47829 4.7647V6.72521C3.47829 7.69441 4.20963 8.48282 5.10854 8.48282H11.4286C11.8288 8.48282 12.5217 8.00893 12.5217 6.72524V4.76474C12.5217 4.20917 12.941 3.75716 13.4563 3.75716H15.3043L15.3044 10.3773Z"></path>
</symbol>
<symbol id="icon-left_arrow" viewBox="0 0 19 32">
<path fill="none" stroke="#ff7236" style="stroke: var(--color1, #ff7236)" stroke-linejoin="round" stroke-linecap="round" stroke-miterlimit="4" stroke-width="6.4" d="M16 3.198l-12.8 12.8 12.8 12.8"></path>
</symbol>
<symbol id="icon-room_3" viewBox="0 0 28 32">
<path fill="#777" style="fill: var(--color12, #777)" d="M26.455 27.224h-8.662v-22.447h3.389v8.879c-1.018 0.237-1.783 1.198-1.783 2.344 0 1.324 1.019 2.401 2.271 2.401s2.271-1.077 2.271-2.401c0-1.147-0.764-2.108-1.783-2.344v-8.879h2.977c0.852 0 1.545-0.733 1.545-1.633v-1.51c0-0.9-0.693-1.633-1.545-1.633h-22.27c-0.852 0-1.545 0.733-1.545 1.633v1.51c0 0.9 0.693 1.633 1.545 1.633h7.342v22.448h-8.662c-0.852 0-1.545 0.732-1.545 1.633v1.51c0 0.901 0.693 1.633 1.545 1.633h24.911c0.852 0 1.545-0.733 1.545-1.633v-1.51c0-0.9-0.693-1.633-1.545-1.633zM22.965 16c0 0.755-0.581 1.369-1.295 1.369s-1.295-0.614-1.295-1.369c0-0.755 0.581-1.369 1.295-1.369s1.295 0.614 1.295 1.369zM2.865 3.143v-1.51c0-0.331 0.478-0.445 0.791-0.445h21.151c0.313 0 0.568 0.114 0.568 0.445v1.51c0 0.331-0.255 0.419-0.568 0.419h-21.151c-0.313 0-0.791-0.088-0.791-0.419zM11.469 23.56h0.547c0 0 0.488-0.231 0.488-0.516s-0.219-0.516-0.488-0.516h-0.547v-3.664h5.151c0.27 0 1.919-0.293 0.623-0.578 1.296-0.285-0.354-0.454-0.623-0.454h-5.151v-3.664h4.516c0.27 0-0.488-0.231-0.488-0.516s0.758-0.516 0.488-0.516h-4.516v-8.36l5.151-0v3.664h-5.577c-0.27 0 0-0.054 0 0.231 0 0.801-0.285 0.801-0.285 0.801l5.863-0v3.664l-0.636 0c-0.27 0-0.488 0.231-0.488 0.516s0.219 0.516 0.488 0.516l0.636-0v8.36h-4.604c-0.27 0 0.488 0.231 0.488 0.516s-0.758 0.516-0.488 0.516h4.604v3.664l-5.151 0v-3.664zM26.806 30.367c0 0.331-0.493 0.414-0.806 0.414h-24.182c-0.313 0-0.568-0.083-0.568-0.414v-1.51c0-0.331 0.255-0.419 0.568-0.419h24.419c0.313 0 0.568 0.088 0.568 0.419l0 1.51z"></path>
</symbol>
<symbol id="icon-room_4" viewBox="0 0 32 32">
<path fill="#777" style="fill: var(--color12, #777)" d="M29.055 26.108h-8.073c4.182-2.422 7.001-6.946 7.001-12.117 0-7.715-6.277-13.992-13.992-13.992s-13.992 6.277-13.992 13.992c0 7.715 6.277 13.992 13.992 13.992h15.063c0.59 0 1.070 0.48 1.070 1.072s-0.478 1.070-1.070 1.070h-13.055c-0.518 0-0.938 0.42-0.938 0.937s0.42 0.938 0.938 0.938h13.055c1.61 0 2.945-1.3 2.945-2.947 0-1.624-1.321-2.945-2.945-2.945zM13.992 26.108c-0.524 0-1.041-0.034-1.548-0.099l10.245-5.915 1.293 0.746c-2.186 3.179-5.848 5.267-9.989 5.267zM7.196 24.018l11.144-6.434 2.473 1.428-11.002 6.352c-0.93-0.343-1.807-0.797-2.615-1.346zM6.233 4.693c0.753-0.629 1.583-1.169 2.473-1.603v12.871l-2.473 1.428v-12.696zM10.581 2.365c0.794-0.233 1.621-0.388 2.473-0.454v11.539l-2.473 1.428v-12.514zM26.108 13.992c0 0.294-0.011 0.585-0.032 0.874l-11.147-6.436v-2.856l11.002 6.352c0.116 0.672 0.177 1.362 0.177 2.066zM14.929 10.595l10.837 6.257c-0.2 0.825-0.485 1.618-0.845 2.368l-9.992-5.769v-2.856zM25.172 9.323l-10.243-5.914v-1.498c4.622 0.355 8.526 3.316 10.243 7.412zM4.358 6.652v11.819l-1.296 0.748c-0.76-1.584-1.187-3.357-1.187-5.228 0-2.757 0.926-5.301 2.483-7.339zM4.003 20.841l9.989-5.767 2.473 1.428-10.832 6.254c-0.607-0.579-1.154-1.221-1.63-1.914z"></path>
</symbol>
<symbol id="icon-room_5" viewBox="0 0 32 32">
<path fill="#777" style="fill: var(--color12, #777)" d="M31.725 14.333l-13.348-13.348c-0.635-0.635-1.479-0.985-2.377-0.985s-1.743 0.35-2.377 0.985l-13.348 13.348c-0.176 0.176-0.275 0.414-0.275 0.663s0.099 0.487 0.275 0.663c0 0 0.451 0.451 1.004 1.004 1.061 1.061 2.522 1.312 3.742 0.953v13.447c0 0.518 0.42 0.938 0.938 0.938h20.083c0.518 0 0.937-0.42 0.937-0.938v-13.447c1.219 0.359 2.681 0.108 3.742-0.953 0.553-0.553 1.004-1.004 1.004-1.004 0.176-0.176 0.275-0.414 0.275-0.663s-0.099-0.487-0.275-0.663zM25.104 16.388v9.72h-4.15v-6.092c0-2.736-2.213-4.954-4.954-4.954-2.737 0-4.954 2.213-4.954 4.954v6.092h-4.15v-9.72l9.104-9.104 9.104 9.104zM6.896 27.983h4.15v2.142h-4.15v-2.142zM12.921 30.125v-10.108c0-1.697 1.372-3.079 3.079-3.079 1.701 0 3.079 1.375 3.079 3.079v10.108h-6.158zM20.954 30.125v-2.142h4.15v2.142h-4.15zM29.395 15.337c-0.742 0.743-1.946 0.744-2.69 0-0.006-0.006-0.012-0.012-0.018-0.018l-10.024-10.024c-0.366-0.366-0.96-0.366-1.326 0l-10.024 10.024c-0.006 0.006-0.012 0.012-0.018 0.018-0.743 0.743-1.946 0.744-2.69 0-0.12-0.12-0.235-0.235-0.341-0.342l12.686-12.686c0.579-0.58 1.521-0.581 2.102 0l12.685 12.685c-0.107 0.107-0.222 0.222-0.342 0.342z"></path>
</symbol>
<symbol id="icon-up_arrow" viewBox="0 0 56 32">
<path stroke-linejoin="round" stroke-linecap="round" stroke-miterlimit="4" stroke-width="8" d="M52 28l-24-24-24 24"></path>
</symbol>
</defs>
<symbol id="icon-filter" viewBox="0 0 26 32">
<path d="M9.6 18.526l-9.6-15.158v-3.368h25.6v3.368l-9.6 15.158v10.105l-6.4 3.368v-13.474z"></path>
</symbol>
</svg>
